<svg width="32" height="32" viewBox="0 0 32 32" fill="none" xmlns="http://www.w3.org/2000/svg">
<path d="M19.3582 10C20.4756 10 21.4142 10.3768 22.174 11.1304C22.9339 11.8841 23.3138 12.8039 23.3138 13.89C23.3138 14.422 23.202 14.9595 22.9786 15.5026C22.7551 16.0456 22.5093 16.5277 22.2411 16.9488C21.9729 17.37 21.5204 17.913 20.8835 18.578C20.2465 19.243 19.7102 19.7805 19.2744 20.1905C18.8386 20.6006 18.1403 21.2268 17.1793 22.0691L16.1401 23L15.101 22.1023C14.1623 21.2379 13.4696 20.6006 13.0226 20.1905C12.5757 19.7805 12.0337 19.243 11.3968 18.578C10.7599 17.913 10.3073 17.37 10.0392 16.9488C9.771 16.5277 9.53076 16.0456 9.31846 15.5026C9.10615 14.9595 9 14.422 9 13.89C9 12.8039 9.37991 11.8841 10.1397 11.1304C10.8996 10.3768 11.827 10 12.922 10C14.2182 10 15.2909 10.4987 16.1401 11.4962C16.9893 10.4987 18.062 10 19.3582 10ZM16.2072 21.0384C17.3022 20.0631 18.1011 19.3372 18.604 18.8606C19.1068 18.3841 19.6599 17.8133 20.2633 17.1483C20.8667 16.4834 21.2857 15.9015 21.5204 15.4028C21.755 14.9041 21.8723 14.3998 21.8723 13.89C21.8723 13.1807 21.6321 12.5934 21.1516 12.1279C20.6711 11.6624 20.0733 11.4297 19.3582 11.4297C18.8219 11.4297 18.3135 11.5848 17.833 11.8951C17.3525 12.2055 17.0117 12.6044 16.8106 13.0921H15.4697C15.2909 12.6044 14.9613 12.2055 14.4808 11.8951C14.0003 11.5848 13.4807 11.4297 12.922 11.4297C12.2069 11.4297 11.6147 11.6624 11.1454 12.1279C10.6761 12.5934 10.4414 13.1807 10.4414 13.89C10.4414 14.3998 10.5532 14.9041 10.7767 15.4028C11.0001 15.9015 11.4192 16.4834 12.0337 17.1483C12.6483 17.8133 13.207 18.3841 13.7098 18.8606C14.2126 19.3372 15.0004 20.0631 16.0731 21.0384L16.1401 21.1049L16.2072 21.0384Z" fill="#F2F2F2"/>
<rect x="0.5" y="0.5" width="31" height="31" rx="6.5" stroke="#F2F2F2"/>
</svg>
